<svg width="60" height="60" viewBox="0 0 60 60" fill="none" xmlns="http://www.w3.org/2000/svg">
<path d="M7.5 12.5C7.5 9.73875 9.73875 7.5 12.5 7.5H47.5C50.2612 7.5 52.5 9.73875 52.5 12.5V47.5C52.5 50.2612 50.2612 52.5 47.5 52.5H12.5C9.73875 52.5 7.5 50.2612 7.5 47.5V12.5Z" fill="#2196F3"/>
<path d="M33.75 21.25H42.5V23.75H33.75V21.25ZM26.89 29.285C27.6212 28.9287 29.2688 28.1175 29.2688 25.7137C29.2688 21.1925 24.3288 21.2512 23.415 21.2512H15V38.7512H23.7812C24.5125 38.75 30 38.5438 30 33.7488C30 30.655 27.9875 29.6425 26.89 29.285ZM18.75 24.285H22.41C22.775 24.285 25.1537 24.415 25.1537 26.25C25.1537 28.0837 23.325 28.3925 22.7763 28.3925H18.75V24.285ZM22.92 35.7137H18.7112V30.8938H22.92C23.8338 30.8938 25.8463 31.19 25.8463 33.3938C25.8463 35.595 23.285 35.7137 22.92 35.7137ZM40.5475 35.4938C39.9662 35.855 39.3862 36.0387 38.6112 36.0387C35.7038 36.0387 35.125 33.5875 35.125 32.5012H45C45 31.415 45 30.6125 44.8063 29.7062C44.6113 28.8 43.2875 25 38.4175 25C31.6112 25 31.25 30.9725 31.25 31.875C31.25 32.7788 31.445 33.8662 31.8337 34.5887C32.22 35.4937 32.6075 36.2187 33.1888 36.7587C33.7688 37.3025 34.5425 37.8412 35.3175 38.205C36.285 38.5687 37.2537 38.75 38.2225 38.75C39.77 38.75 41.1275 38.39 42.2888 37.665C43.4525 36.9412 44.2263 35.855 44.8063 34.4075H41.515C41.3213 34.77 41.1275 35.13 40.5475 35.4938ZM38.4175 27.5338C40.315 27.5338 41.1275 29.5237 41.32 30.4262H35.125C35.125 30.2475 35.5887 27.5338 38.4175 27.5338Z" fill="white"/>
</svg>
