<svg width="60" height="60" viewBox="0 0 60 60" fill="none" xmlns="http://www.w3.org/2000/svg">
<path d="M30 6.25C23.7011 6.25 17.6602 8.75222 13.2062 13.2062C8.75222 17.6602 6.25 23.7011 6.25 30C6.25 36.2989 8.75222 42.3398 13.2062 46.7938C17.6602 51.2478 23.7011 53.75 30 53.75C36.2989 53.75 42.3398 51.2478 46.7938 46.7938C51.2478 42.3398 53.75 36.2989 53.75 30C53.75 23.7011 51.2478 17.6602 46.7938 13.2062C42.3398 8.75222 36.2989 6.25 30 6.25Z" fill="#039BE5"/>
<path d="M33.215 36.295H39.3613L40.3263 30.0512H33.2138V26.6387C33.2138 24.045 34.0613 21.745 36.4875 21.745H40.3863V16.2962C39.7013 16.2037 38.2525 16.0012 35.515 16.0012C29.7988 16.0012 26.4475 19.02 26.4475 25.8975V30.0512H20.5713V36.295H26.4475V53.4562C27.6113 53.6312 28.79 53.75 30 53.75C31.0938 53.75 32.1613 53.65 33.215 53.5075V36.295Z" fill="white"/>
</svg>
