<svg width="60" height="60" viewBox="0 0 60 60" fill="none" xmlns="http://www.w3.org/2000/svg">
<path d="M52.5 46.25C52.5 49.7025 49.7025 52.5 46.25 52.5H13.75C10.2988 52.5 7.5 49.7025 7.5 46.25V13.75C7.5 10.2975 10.2988 7.5 13.75 7.5H46.25C49.7025 7.5 52.5 10.2975 52.5 13.75V46.25Z" fill="#0288D1"/>
<path d="M15 23.75H21.25V45H15V23.75ZM18.1062 21.25H18.0712C16.2062 21.25 15 19.86 15 18.1237C15 16.35 16.2437 15 18.1425 15C20.0437 15 21.215 16.35 21.25 18.1237C21.25 19.8587 20.0437 21.25 18.1062 21.25ZM45 45H38.75V33.6262C38.75 30.8787 37.2188 29.0037 34.76 29.0037C32.8838 29.0037 31.8687 30.2688 31.3762 31.4913C31.1962 31.9288 31.25 33.1388 31.25 33.75V45H25V23.75H31.25V27.02C32.1513 25.625 33.5625 23.75 37.1725 23.75C41.645 23.75 44.9988 26.5625 44.9988 32.8425L45 45Z" fill="white"/>
</svg>
