<svg width="60" height="60" viewBox="0 0 60 60" fill="none" xmlns="http://www.w3.org/2000/svg">
<path d="M30 5C23.3696 5 17.0107 7.63392 12.3223 12.3223C7.63392 17.0107 5 23.3696 5 30C5 36.6304 7.63392 42.9893 12.3223 47.6777C17.0107 52.3661 23.3696 55 30 55C36.6304 55 42.9893 52.3661 47.6777 47.6777C52.3661 42.9893 55 36.6304 55 30C55 23.3696 52.3661 17.0107 47.6777 12.3223C42.9893 7.63392 36.6304 5 30 5Z" fill="#29B6F6"/>
<path d="M42.4375 18.75L37.755 42.6575C37.755 42.6575 37.5537 43.75 36.1987 43.75C35.4788 43.75 35.1075 43.4075 35.1075 43.4075L24.965 34.9913L20.0025 32.49L13.6337 30.7963C13.6337 30.7963 12.5 30.4688 12.5 29.5313C12.5 28.75 13.6662 28.3775 13.6662 28.3775L40.3113 17.7925C40.3113 17.7925 41.125 17.4988 41.7188 17.5C42.0837 17.5 42.5 17.6563 42.5 18.125C42.5 18.4375 42.4375 18.75 42.4375 18.75Z" fill="white"/>
<path d="M28.75 38.1313L24.4675 42.3488C24.4675 42.3488 24.2813 42.4925 24.0325 42.4988C23.9463 42.5013 23.8538 42.4875 23.7588 42.445L24.9638 34.9888L28.75 38.1313Z" fill="#B0BEC5"/>
<path d="M37.3713 22.7451C37.16 22.4701 36.77 22.4201 36.495 22.6289L20 32.5001C20 32.5001 22.6325 39.8651 23.0338 41.1401C23.4362 42.4164 23.7587 42.4464 23.7587 42.4464L24.9638 34.9901L37.2537 23.6201C37.5287 23.4114 37.58 23.0201 37.3713 22.7451Z" fill="#CFD8DC"/>
</svg>
