<svg width="60" height="60" viewBox="0 0 60 60" fill="none" xmlns="http://www.w3.org/2000/svg">
<path d="M54 42.375C53.5 45 51.375 47 48.75 47.375C44.625 48 37.75 48.75 30 48.75C22.375 48.75 15.5 48 11.25 47.375C8.625 47 6.5 45 6 42.375C5.5 39.5 5 35.25 5 30C5 24.75 5.5 20.5 6 17.625C6.5 15 8.625 13 11.25 12.625C15.375 12 22.25 11.25 30 11.25C37.75 11.25 44.5 12 48.75 12.625C51.375 13 53.5 15 54 17.625C54.5 20.5 55.125 24.75 55.125 30C55 35.25 54.5 39.5 54 42.375Z" fill="#FF3D00"/>
<path d="M25 38.75V21.25L40 30L25 38.75Z" fill="white"/>
</svg>
